<mxfile host="app.diagrams.net" agent="Mozilla/5.0 (Windows NT 10.0; Win64; x64) AppleWebKit/537.36 (KHTML, like Gecko) Chrome/134.0.0.0 Safari/537.36" version="26.2.9">
  <diagram name="第 1 页" id="_vKq9fBHNY01Ka-iuAKG">
    <mxGraphModel dx="1428" dy="751" grid="1" gridSize="10" guides="1" tooltips="1" connect="1" arrows="1" fold="1" page="1" pageScale="1" pageWidth="827" pageHeight="1169" math="0" shadow="0">
      <root>
        <mxCell id="0" />
        <mxCell id="1" parent="0" />
        <mxCell id="ObmUWvNZimiOGbfA-z7O-1" value="" style="rounded=0;whiteSpace=wrap;html=1;fillColor=#ffe6cc;strokeColor=#d79b00;fontSize=14;" vertex="1" parent="1">
          <mxGeometry x="150" y="190" width="580" height="150" as="geometry" />
        </mxCell>
        <mxCell id="ObmUWvNZimiOGbfA-z7O-2" value="应用程序&lt;div&gt;User Buffer&lt;/div&gt;" style="ellipse;whiteSpace=wrap;html=1;fillColor=#ffe6cc;strokeColor=#d79b00;fontSize=14;" vertex="1" parent="1">
          <mxGeometry x="360" y="220" width="180" height="95" as="geometry" />
        </mxCell>
        <mxCell id="ObmUWvNZimiOGbfA-z7O-3" value="用户态" style="text;html=1;align=center;verticalAlign=middle;resizable=0;points=[];autosize=1;strokeColor=none;fillColor=none;fontSize=14;" vertex="1" parent="1">
          <mxGeometry x="45" y="188" width="70" height="30" as="geometry" />
        </mxCell>
        <mxCell id="ObmUWvNZimiOGbfA-z7O-4" value="" style="rounded=0;whiteSpace=wrap;html=1;fillColor=#f8cecc;strokeColor=#b85450;fontSize=14;" vertex="1" parent="1">
          <mxGeometry x="150" y="470" width="590" height="190" as="geometry" />
        </mxCell>
        <mxCell id="ObmUWvNZimiOGbfA-z7O-5" value="Socket Buffer" style="ellipse;whiteSpace=wrap;html=1;fillColor=light-dark(#ff4c28, #ff9281);fontColor=#ffffff;strokeColor=#B20000;fontSize=14;" vertex="1" parent="1">
          <mxGeometry x="510" y="520" width="170" height="110" as="geometry" />
        </mxCell>
        <mxCell id="ObmUWvNZimiOGbfA-z7O-6" value="Kernal Buffer" style="ellipse;whiteSpace=wrap;html=1;fillColor=light-dark(#eb7363, #ededed);fontSize=14;" vertex="1" parent="1">
          <mxGeometry x="210" y="520" width="170" height="110" as="geometry" />
        </mxCell>
        <mxCell id="ObmUWvNZimiOGbfA-z7O-7" value="磁盘" style="rounded=0;whiteSpace=wrap;html=1;fillColor=light-dark(#eb7363, #ededed);fontSize=14;" vertex="1" parent="1">
          <mxGeometry x="210" y="770" width="190" height="100" as="geometry" />
        </mxCell>
        <mxCell id="ObmUWvNZimiOGbfA-z7O-8" value="网卡socket" style="rounded=0;whiteSpace=wrap;html=1;fillColor=light-dark(#ff4c28, #ff9281);fontColor=#ffffff;strokeColor=#B20000;fontSize=14;" vertex="1" parent="1">
          <mxGeometry x="530" y="770" width="190" height="100" as="geometry" />
        </mxCell>
        <mxCell id="ObmUWvNZimiOGbfA-z7O-9" value="" style="endArrow=classic;html=1;rounded=0;entryX=0.5;entryY=1;entryDx=0;entryDy=0;fontSize=14;" edge="1" parent="1" target="ObmUWvNZimiOGbfA-z7O-6">
          <mxGeometry relative="1" as="geometry">
            <mxPoint x="295" y="766" as="sourcePoint" />
            <mxPoint x="360" y="720" as="targetPoint" />
          </mxGeometry>
        </mxCell>
        <mxCell id="ObmUWvNZimiOGbfA-z7O-10" value="1-DMA拷贝" style="edgeLabel;resizable=0;html=1;;align=center;verticalAlign=middle;fontSize=14;" connectable="0" vertex="1" parent="ObmUWvNZimiOGbfA-z7O-9">
          <mxGeometry relative="1" as="geometry" />
        </mxCell>
        <mxCell id="ObmUWvNZimiOGbfA-z7O-11" value="" style="endArrow=classic;html=1;rounded=0;entryX=0;entryY=0.5;entryDx=0;entryDy=0;fontSize=14;" edge="1" parent="1" source="ObmUWvNZimiOGbfA-z7O-6" target="ObmUWvNZimiOGbfA-z7O-5">
          <mxGeometry relative="1" as="geometry">
            <mxPoint x="380" y="575" as="sourcePoint" />
            <mxPoint x="540" y="575" as="targetPoint" />
          </mxGeometry>
        </mxCell>
        <mxCell id="ObmUWvNZimiOGbfA-z7O-12" value="2-CPU拷贝" style="edgeLabel;resizable=0;html=1;;align=center;verticalAlign=middle;fontSize=14;" connectable="0" vertex="1" parent="ObmUWvNZimiOGbfA-z7O-11">
          <mxGeometry relative="1" as="geometry" />
        </mxCell>
        <mxCell id="ObmUWvNZimiOGbfA-z7O-15" value="" style="endArrow=classic;html=1;rounded=0;entryX=0.237;entryY=-0.021;entryDx=0;entryDy=0;entryPerimeter=0;strokeColor=light-dark(#f50505, #ededed);fontSize=14;" edge="1" parent="1" target="ObmUWvNZimiOGbfA-z7O-4">
          <mxGeometry relative="1" as="geometry">
            <mxPoint x="290" y="350" as="sourcePoint" />
            <mxPoint x="290" y="470" as="targetPoint" />
          </mxGeometry>
        </mxCell>
        <mxCell id="ObmUWvNZimiOGbfA-z7O-16" value="1-sendfile()调用&lt;div&gt;CPU状态切换&lt;/div&gt;" style="edgeLabel;resizable=0;html=1;;align=center;verticalAlign=middle;fontSize=14;" connectable="0" vertex="1" parent="ObmUWvNZimiOGbfA-z7O-15">
          <mxGeometry relative="1" as="geometry" />
        </mxCell>
        <mxCell id="ObmUWvNZimiOGbfA-z7O-18" value="" style="endArrow=classic;html=1;rounded=0;entryX=0.237;entryY=-0.021;entryDx=0;entryDy=0;entryPerimeter=0;strokeColor=light-dark(#f50505, #ededed);fontSize=14;" edge="1" parent="1">
          <mxGeometry relative="1" as="geometry">
            <mxPoint x="594.5" y="466" as="sourcePoint" />
            <mxPoint x="594.5" y="350" as="targetPoint" />
          </mxGeometry>
        </mxCell>
        <mxCell id="ObmUWvNZimiOGbfA-z7O-19" value="2-CPU状态切换" style="edgeLabel;resizable=0;html=1;;align=center;verticalAlign=middle;fontSize=14;" connectable="0" vertex="1" parent="ObmUWvNZimiOGbfA-z7O-18">
          <mxGeometry relative="1" as="geometry" />
        </mxCell>
        <mxCell id="ObmUWvNZimiOGbfA-z7O-20" value="" style="endArrow=classic;html=1;rounded=0;entryX=0.5;entryY=1;entryDx=0;entryDy=0;fontSize=14;" edge="1" parent="1">
          <mxGeometry relative="1" as="geometry">
            <mxPoint x="594.5" y="630" as="sourcePoint" />
            <mxPoint x="594.5" y="766" as="targetPoint" />
          </mxGeometry>
        </mxCell>
        <mxCell id="ObmUWvNZimiOGbfA-z7O-21" value="3-DMA拷贝" style="edgeLabel;resizable=0;html=1;;align=center;verticalAlign=middle;fontSize=14;" connectable="0" vertex="1" parent="ObmUWvNZimiOGbfA-z7O-20">
          <mxGeometry relative="1" as="geometry" />
        </mxCell>
        <mxCell id="ObmUWvNZimiOGbfA-z7O-22" value="内核态" style="text;html=1;align=center;verticalAlign=middle;resizable=0;points=[];autosize=1;strokeColor=none;fillColor=none;fontSize=14;" vertex="1" parent="1">
          <mxGeometry x="55" y="478" width="70" height="30" as="geometry" />
        </mxCell>
      </root>
    </mxGraphModel>
  </diagram>
</mxfile>
